<?xml version="1.0" encoding="UTF-8" standalone="no"?>
<!-- Created with Inkscape (http://www.inkscape.org/) -->

<svg
   width="108"
   height="108"
   viewBox="0 0 28.575 28.575"
   version="1.1"
   id="svg1"
   xml:space="preserve"
   xmlns:xlink="http://www.w3.org/1999/xlink"
   xmlns="http://www.w3.org/2000/svg"
   xmlns:svg="http://www.w3.org/2000/svg"><defs
     id="defs1"><linearGradient
       id="linearGradient9"><stop
         style="stop-color:#9ec9b8;stop-opacity:0.41960785;"
         offset="0"
         id="stop8" /><stop
         style="stop-color:#0e0d0b;stop-opacity:0;"
         offset="1"
         id="stop9" /></linearGradient><linearGradient
       id="linearGradient6"><stop
         style="stop-color:#e8b547;stop-opacity:0.41999999;"
         offset="0"
         id="stop6" /><stop
         style="stop-color:#0e0d0b;stop-opacity:0;"
         offset="1"
         id="stop7" /></linearGradient><linearGradient
       id="linearGradient2"><stop
         style="stop-color:#000000;stop-opacity:1;"
         offset="0"
         id="stop2" /><stop
         style="stop-color:#000000;stop-opacity:0;"
         offset="1"
         id="stop3" /></linearGradient><linearGradient
       id="linearGradient16286"><stop
         style="stop-color:#2b1106;stop-opacity:1;"
         offset="0"
         id="stop16286" /><stop
         style="stop-color:#c99245;stop-opacity:1;"
         offset="0.5"
         id="stop16288" /><stop
         style="stop-color:#291409;stop-opacity:1;"
         offset="1"
         id="stop16287" /></linearGradient><linearGradient
       id="linearGradient16272"><stop
         style="stop-color:#e2be6d;stop-opacity:1;"
         offset="0"
         id="stop16272" /><stop
         style="stop-color:#684430;stop-opacity:1;"
         offset="1"
         id="stop16273" /></linearGradient><linearGradient
       xlink:href="#linearGradient16272"
       id="linearGradient16273"
       x1="742.78149"
       y1="339.42007"
       x2="293.82559"
       y2="690.18286"
       gradientUnits="userSpaceOnUse"
       gradientTransform="translate(-1.4209984,1.4209982)" /><linearGradient
       xlink:href="#linearGradient16286"
       id="linearGradient16287"
       x1="516.03339"
       y1="348.02753"
       x2="521.89441"
       y2="683.80652"
       gradientUnits="userSpaceOnUse"
       gradientTransform="translate(0,0.40034)" /><radialGradient
       xlink:href="#linearGradient2"
       id="radialGradient3"
       gradientTransform="scale(1.1702386,0.85452661)"
       cx="20.603559"
       cy="13.74064"
       fx="20.603559"
       fy="13.74064"
       r="59.628056"
       gradientUnits="userSpaceOnUse" /><radialGradient
       xlink:href="#linearGradient6"
       id="radialGradient7"
       cx="14.248976"
       cy="14.391466"
       fx="14.248976"
       fy="14.391466"
       r="14.961425"
       gradientUnits="userSpaceOnUse"
       gradientTransform="matrix(2.545238,0,0,2.1880953,-43.854617,-1.5314276)" /><radialGradient
       xlink:href="#linearGradient9"
       id="radialGradient7-1"
       cx="14.248976"
       cy="14.391466"
       fx="14.248976"
       fy="14.391466"
       r="14.961425"
       gradientUnits="userSpaceOnUse"
       gradientTransform="matrix(2.8619045,0,0,2.402381,10.292745,-37.84276)" /><radialGradient
       xlink:href="#linearGradient2"
       id="radialGradient2"
       gradientTransform="scale(0.99880023,1.0012012)"
       cx="14.408752"
       cy="14.409779"
       fx="14.408752"
       fy="14.409779"
       r="14.836735"
       gradientUnits="userSpaceOnUse" /><radialGradient
       xlink:href="#linearGradient2"
       id="radialGradient4"
       gradientTransform="scale(1.0785271,0.92719042)"
       cx="-7.0351329"
       cy="32.311028"
       fx="-7.0351329"
       fy="32.311028"
       r="35.30777"
       gradientUnits="userSpaceOnUse" /><radialGradient
       xlink:href="#linearGradient2"
       id="radialGradient5"
       gradientTransform="scale(1.091457,0.91620647)"
       cx="46.792458"
       cy="-3.567945"
       fx="46.792458"
       fy="-3.567945"
       r="39.230286"
       gradientUnits="userSpaceOnUse" /></defs><g
     id="layer3"
     style="display:none"><g
       id="g1"
       transform="matrix(0.09485908,0,0,0.09484538,-9.4680966,-5.6648564)"><rect
         x="100"
         y="60"
         width="300"
         height="300"
         rx="10"
         stroke-width="0.5"
         style="color:#0b0b0b;font-weight:400;font-size:16px;font-family:'Anthropic Sans', '-apple-system', BlinkMacSystemFont, 'Segoe UI', sans-serif;dominant-baseline:auto;text-anchor:start;opacity:1;fill:#f1efe8;stroke:#5f5e5a;stroke-width:0.5px;stroke-linecap:butt;stroke-linejoin:miter"
         id="rect1" /><rect
         x="150"
         y="110"
         width="200"
         height="200"
         rx="6"
         stroke-width="0.5"
         style="color:#0b0b0b;font-weight:400;font-size:16px;font-family:'Anthropic Sans', '-apple-system', BlinkMacSystemFont, 'Segoe UI', sans-serif;dominant-baseline:auto;text-anchor:start;opacity:1;fill:#e6f1fb;stroke:#185fa5;stroke-width:0.5px;stroke-linecap:butt;stroke-linejoin:miter"
         id="rect2" /><circle
         cx="250"
         cy="210"
         r="91"
         fill="none"
         stroke="#1D9E75"
         stroke-width="2.5"
         stroke-dasharray="6 5"
         style="color:#0b0b0b;font-weight:400;font-size:16px;font-family:'Anthropic Sans', '-apple-system', BlinkMacSystemFont, 'Segoe UI', sans-serif;dominant-baseline:auto;text-anchor:start;opacity:1;fill:none;stroke:#1d9e75;stroke-width:2.5px;stroke-linecap:butt;stroke-linejoin:miter;stroke-dasharray:6px, 5px"
         id="circle2" /><line
         x1="400"
         y1="120"
         x2="452"
         y2="112"
         style="color:#0b0b0b;font-weight:400;font-size:16px;font-family:'Anthropic Sans', '-apple-system', BlinkMacSystemFont, 'Segoe UI', sans-serif;dominant-baseline:auto;text-anchor:start;opacity:1;fill:none;stroke:#898781;stroke-width:0.5px;stroke-linecap:butt;stroke-linejoin:miter;stroke-dasharray:4px, 3px"
         id="line2" /><circle
         cx="400"
         cy="120"
         r="2"
         fill="var(--t)"
         style="color:#0b0b0b;font-weight:400;font-size:16px;font-family:'Anthropic Sans', '-apple-system', BlinkMacSystemFont, 'Segoe UI', sans-serif;dominant-baseline:auto;text-anchor:start;opacity:1;fill:#898781;stroke:none;stroke-width:1px;stroke-linecap:butt;stroke-linejoin:miter"
         id="circle3" /><text
         x="458"
         y="108"
         style="color:#0b0b0b;font-weight:500;font-size:14px;font-family:'Anthropic Sans', '-apple-system', BlinkMacSystemFont, 'Segoe UI', sans-serif;dominant-baseline:auto;text-anchor:start;opacity:1;fill:#0b0b0b;stroke:none;stroke-width:1px;stroke-linecap:butt;stroke-linejoin:miter"
         id="text3">108 dp</text><text
         x="458"
         y="126"
         style="color:#0b0b0b;font-weight:400;font-size:12px;font-family:'Anthropic Sans', '-apple-system', BlinkMacSystemFont, 'Segoe UI', sans-serif;dominant-baseline:auto;text-anchor:start;opacity:1;fill:#52514e;stroke:none;stroke-width:1px;stroke-linecap:butt;stroke-linejoin:miter"
         id="text4">full layer, background fills it</text><line
         x1="378"
         y1="176"
         x2="452"
         y2="176"
         style="color:#0b0b0b;font-weight:400;font-size:16px;font-family:'Anthropic Sans', '-apple-system', BlinkMacSystemFont, 'Segoe UI', sans-serif;dominant-baseline:auto;text-anchor:start;opacity:1;fill:none;stroke:#898781;stroke-width:0.5px;stroke-linecap:butt;stroke-linejoin:miter;stroke-dasharray:4px, 3px"
         id="line4" /><circle
         cx="378"
         cy="176"
         r="2"
         fill="var(--t)"
         style="color:#0b0b0b;font-weight:400;font-size:16px;font-family:'Anthropic Sans', '-apple-system', BlinkMacSystemFont, 'Segoe UI', sans-serif;dominant-baseline:auto;text-anchor:start;opacity:1;fill:#898781;stroke:none;stroke-width:1px;stroke-linecap:butt;stroke-linejoin:miter"
         id="circle4" /><text
         x="458"
         y="172"
         style="color:#0b0b0b;font-weight:500;font-size:14px;font-family:'Anthropic Sans', '-apple-system', BlinkMacSystemFont, 'Segoe UI', sans-serif;dominant-baseline:auto;text-anchor:start;opacity:1;fill:#0b0b0b;stroke:none;stroke-width:1px;stroke-linecap:butt;stroke-linejoin:miter"
         id="text5">18 dp bleed</text><text
         x="458"
         y="190"
         style="color:#0b0b0b;font-weight:400;font-size:12px;font-family:'Anthropic Sans', '-apple-system', BlinkMacSystemFont, 'Segoe UI', sans-serif;dominant-baseline:auto;text-anchor:start;opacity:1;fill:#52514e;stroke:none;stroke-width:1px;stroke-linecap:butt;stroke-linejoin:miter"
         id="text6">edges may be cropped</text><line
         x1="350"
         y1="240"
         x2="452"
         y2="243"
         style="color:#0b0b0b;font-weight:400;font-size:16px;font-family:'Anthropic Sans', '-apple-system', BlinkMacSystemFont, 'Segoe UI', sans-serif;dominant-baseline:auto;text-anchor:start;opacity:1;fill:none;stroke:#898781;stroke-width:0.5px;stroke-linecap:butt;stroke-linejoin:miter;stroke-dasharray:4px, 3px"
         id="line6" /><circle
         cx="350"
         cy="240"
         r="2"
         fill="var(--t)"
         style="color:#0b0b0b;font-weight:400;font-size:16px;font-family:'Anthropic Sans', '-apple-system', BlinkMacSystemFont, 'Segoe UI', sans-serif;dominant-baseline:auto;text-anchor:start;opacity:1;fill:#898781;stroke:none;stroke-width:1px;stroke-linecap:butt;stroke-linejoin:miter"
         id="circle6" /><text
         x="458"
         y="239"
         style="color:#0b0b0b;font-weight:500;font-size:14px;font-family:'Anthropic Sans', '-apple-system', BlinkMacSystemFont, 'Segoe UI', sans-serif;dominant-baseline:auto;text-anchor:start;opacity:1;fill:#0b0b0b;stroke:none;stroke-width:1px;stroke-linecap:butt;stroke-linejoin:miter"
         id="text7">72 dp content</text><text
         x="458"
         y="257"
         style="color:#0b0b0b;font-weight:400;font-size:12px;font-family:'Anthropic Sans', '-apple-system', BlinkMacSystemFont, 'Segoe UI', sans-serif;dominant-baseline:auto;text-anchor:start;opacity:1;fill:#52514e;stroke:none;stroke-width:1px;stroke-linecap:butt;stroke-linejoin:miter"
         id="text8">keep your art within here</text><line
         x1="330"
         y1="288"
         x2="452"
         y2="308"
         style="color:#0b0b0b;font-weight:400;font-size:16px;font-family:'Anthropic Sans', '-apple-system', BlinkMacSystemFont, 'Segoe UI', sans-serif;dominant-baseline:auto;text-anchor:start;opacity:1;fill:none;stroke:#898781;stroke-width:0.5px;stroke-linecap:butt;stroke-linejoin:miter;stroke-dasharray:4px, 3px"
         id="line8" /><circle
         cx="330"
         cy="288"
         r="2"
         fill="#1D9E75"
         style="color:#0b0b0b;font-weight:400;font-size:16px;font-family:'Anthropic Sans', '-apple-system', BlinkMacSystemFont, 'Segoe UI', sans-serif;dominant-baseline:auto;text-anchor:start;opacity:1;fill:#1d9e75;stroke:none;stroke-width:1px;stroke-linecap:butt;stroke-linejoin:miter"
         id="circle8" /><text
         x="458"
         y="304"
         style="color:#0b0b0b;font-weight:500;font-size:14px;font-family:'Anthropic Sans', '-apple-system', BlinkMacSystemFont, 'Segoe UI', sans-serif;dominant-baseline:auto;text-anchor:start;opacity:1;fill:#0b0b0b;stroke:none;stroke-width:1px;stroke-linecap:butt;stroke-linejoin:miter"
         id="text9">66 dp safe zone</text><text
         x="458"
         y="322"
         style="color:#0b0b0b;font-weight:400;font-size:12px;font-family:'Anthropic Sans', '-apple-system', BlinkMacSystemFont, 'Segoe UI', sans-serif;dominant-baseline:auto;text-anchor:start;opacity:1;fill:#52514e;stroke:none;stroke-width:1px;stroke-linecap:butt;stroke-linejoin:miter"
         id="text10">always visible in every mask</text></g></g><g
     id="layer4"
     style="display:none;fill:url(#radialGradient3)"><g
       id="layer5"
       style="display:inline;fill:url(#radialGradient2)"><rect
         style="fill:#0e0d0b;fill-opacity:1;stroke-width:0.273785"
         id="rect3"
         width="29.637869"
         height="29.709114"
         x="-0.42746928"
         y="-0.42746928" /></g><g
       id="layer6"
       style="display:inline;fill:url(#radialGradient4)"><rect
         style="fill:url(#radialGradient7);stroke-width:0.624394"
         id="rect6"
         width="76.160774"
         height="65.474052"
         x="-45.667969"
         y="-2.7785509" /></g><g
       id="layer7"
       style="display:inline;fill:url(#radialGradient5)"><rect
         style="fill:url(#radialGradient7-1);stroke-width:0.693761"
         id="rect6-7"
         width="85.636345"
         height="71.886086"
         x="8.2537842"
         y="-39.212017" /></g></g><g
     id="layer2"
     style="display:none"><g
       id="g2"
       transform="matrix(0.01963707,0,0,0.01963707,4.1656468,4.1470984)"><g
         id="layer3-4"
         style="display:inline;opacity:1"><path
           id="path16275"
           style="display:inline;opacity:1;fill:url(#linearGradient16287);stroke:none;stroke-opacity:1"
           d="M 517.16211,309.50977 A 167.91943,206.81969 0 0 0 351.04883,514.27148 h 157.62695 v -0.0742 c -62.0742,-8.55023 -87.44028,-64.05632 -88.14453,-99.67383 4.84269,-69.90685 52.30713,-98.08815 89.71094,-103.73242 l 0.004,-0.0137 c 3.72567,-0.65139 5.67276,-1.01657 6.91602,-1.26757 z m 16.8457,0.81835 -0.004,0.0664 c 0.21168,0.002 0.42338,0.003 0.63476,0.006 a 167.91943,206.81969 0 0 0 -0.63086,-0.0723 z m 114.73633,74.75391 c 0.0254,0.20088 0.0498,0.40161 0.0742,0.60352 l 0.43945,0.17383 a 167.91943,206.81969 0 0 0 -0.51367,-0.77735 z M 524.42383,514.52148 c 67.4965,12.81675 86.77834,67.53356 86.74805,100.6543 1.32168,63.8125 -52.00534,103.04736 -87.31055,102.92969 l -14.58789,4.6875 a 167.91943,206.81969 0 0 0 9.6875,0.34375 167.91943,206.81969 0 0 0 167.91797,-206.82031 167.91943,206.81969 0 0 0 -0.006,-1.79493 z" /></g><g
         id="layer2-8"
         style="display:inline;opacity:1"><path
           id="path16269"
           style="opacity:1;fill:url(#linearGradient16273);fill-opacity:1;stroke:none;stroke-opacity:1"
           d="M 516.88281,208.74219 A 284.36664,307.48016 0 0 0 232.52148,514.19336 l 119.89454,0.0898 a 166.25684,202.49231 0 0 1 -0.008,-2.01367 166.25684,202.49231 0 0 1 166.25586,-202.49219 166.25684,202.49231 0 0 1 128.83203,74.49805 L 725.91016,307.75 A 284.36664,307.48016 0 0 0 516.88281,208.74219 Z M 684.91211,514.5293 A 166.25684,202.49231 0 0 1 518.66406,714.76172 166.25684,202.49231 0 0 1 388.01758,637.50391 l -84.2832,82.2539 A 284.36664,307.48016 0 0 0 516.88281,823.70312 284.36664,307.48016 0 0 0 801.25,516.22266 a 284.36664,307.48016 0 0 0 -0.004,-1.60547 z" /><path
           style="opacity:0.586907;fill:#e7c06b;fill-opacity:1;stroke:none;stroke-width:0.990958;stroke-opacity:1"
           d="M 306.39845,714.4227 744.75694,291.01407"
           id="path16273" /><path
           style="opacity:0.586907;fill:#e7c06b;fill-opacity:1;stroke:none;stroke-opacity:1"
           d="M 303.09271,718.73604 729.47738,305.8948 v 0"
           id="path16274" /></g></g></g><g
     id="layer8"
     style="display:inline;fill:#0e0d0b;fill-opacity:1"><g
       id="g2-0"
       transform="matrix(0.01940537,0,0,0.01940537,4.3302703,4.2536277)"
       style="display:inline;fill:#0e0d0b;fill-opacity:1"><g
         id="layer3-4-8"
         style="display:inline;opacity:1;fill:#0e0d0b;fill-opacity:1"><path
           id="path16275-4"
           style="display:inline;opacity:1;fill:#0e0d0b;fill-opacity:1;stroke:none;stroke-opacity:1"
           d="M 517.16211,309.50977 A 167.91943,206.81969 0 0 0 351.04883,514.27148 h 157.62695 v -0.0742 c -62.0742,-8.55023 -87.44028,-64.05632 -88.14453,-99.67383 4.84269,-69.90685 52.30713,-98.08815 89.71094,-103.73242 l 0.004,-0.0137 c 3.72567,-0.65139 5.67276,-1.01657 6.91602,-1.26757 z m 16.8457,0.81835 -0.004,0.0664 c 0.21168,0.002 0.42338,0.003 0.63476,0.006 a 167.91943,206.81969 0 0 0 -0.63086,-0.0723 z m 114.73633,74.75391 c 0.0254,0.20088 0.0498,0.40161 0.0742,0.60352 l 0.43945,0.17383 a 167.91943,206.81969 0 0 0 -0.51367,-0.77735 z M 524.42383,514.52148 c 67.4965,12.81675 86.77834,67.53356 86.74805,100.6543 1.32168,63.8125 -52.00534,103.04736 -87.31055,102.92969 l -14.58789,4.6875 a 167.91943,206.81969 0 0 0 9.6875,0.34375 167.91943,206.81969 0 0 0 167.91797,-206.82031 167.91943,206.81969 0 0 0 -0.006,-1.79493 z" /></g><g
         id="layer2-8-0"
         style="display:inline;opacity:1;fill:#0e0d0b;fill-opacity:1"><path
           id="path16269-4"
           style="opacity:1;fill:#0e0d0b;fill-opacity:1;stroke:none;stroke-opacity:1"
           d="M 516.88281,208.74219 A 284.36664,307.48016 0 0 0 232.52148,514.19336 l 119.89454,0.0898 a 166.25684,202.49231 0 0 1 -0.008,-2.01367 166.25684,202.49231 0 0 1 166.25586,-202.49219 166.25684,202.49231 0 0 1 128.83203,74.49805 L 725.91016,307.75 A 284.36664,307.48016 0 0 0 516.88281,208.74219 Z M 684.91211,514.5293 A 166.25684,202.49231 0 0 1 518.66406,714.76172 166.25684,202.49231 0 0 1 388.01758,637.50391 l -84.2832,82.2539 A 284.36664,307.48016 0 0 0 516.88281,823.70312 284.36664,307.48016 0 0 0 801.25,516.22266 a 284.36664,307.48016 0 0 0 -0.004,-1.60547 z" /><path
           style="opacity:0.586907;fill:#0e0d0b;fill-opacity:1;stroke:none;stroke-width:0.990958;stroke-opacity:1"
           d="M 306.39845,714.4227 744.75694,291.01407"
           id="path16273-6" /><path
           style="opacity:0.586907;fill:#0e0d0b;fill-opacity:1;stroke:none;stroke-opacity:1"
           d="M 303.09271,718.73604 729.47738,305.8948 v 0"
           id="path16274-4" /></g></g></g></svg>
