<?xml version="1.0" encoding="UTF-8" standalone="no"?>
<!-- Created with Inkscape (http://www.inkscape.org/) -->

<svg
   version="1.1"
   id="svg1"
   width="1024"
   height="1024"
   viewBox="0 0 1024 1024"
   sodipodi:docname="sesterzo.svg"
   inkscape:version="1.4.3 (0d15f75, 2025-12-25)"
   xmlns:inkscape="http://www.inkscape.org/namespaces/inkscape"
   xmlns:sodipodi="http://sodipodi.sourceforge.net/DTD/sodipodi-0.dtd"
   xmlns:xlink="http://www.w3.org/1999/xlink"
   xmlns="http://www.w3.org/2000/svg"
   xmlns:svg="http://www.w3.org/2000/svg">
  <defs
     id="defs1">
    <linearGradient
       id="linearGradient16286"
       inkscape:collect="always">
      <stop
         style="stop-color:#2b1106;stop-opacity:1;"
         offset="0"
         id="stop16286" />
      <stop
         style="stop-color:#c99245;stop-opacity:1;"
         offset="0.5"
         id="stop16288" />
      <stop
         style="stop-color:#291409;stop-opacity:1;"
         offset="1"
         id="stop16287" />
    </linearGradient>
    <linearGradient
       id="linearGradient16272"
       inkscape:collect="always">
      <stop
         style="stop-color:#e2be6d;stop-opacity:1;"
         offset="0"
         id="stop16272" />
      <stop
         style="stop-color:#684430;stop-opacity:1;"
         offset="1"
         id="stop16273" />
    </linearGradient>
    <linearGradient
       inkscape:collect="always"
       xlink:href="#linearGradient16272"
       id="linearGradient16273"
       x1="742.78149"
       y1="339.42007"
       x2="293.82559"
       y2="690.18286"
       gradientUnits="userSpaceOnUse"
       gradientTransform="translate(-1.4209984,1.4209982)" />
    <linearGradient
       inkscape:collect="always"
       xlink:href="#linearGradient16286"
       id="linearGradient16287"
       x1="516.03339"
       y1="348.02753"
       x2="521.89441"
       y2="683.80652"
       gradientUnits="userSpaceOnUse"
       gradientTransform="translate(0,0.40034)" />
  </defs>
  <sodipodi:namedview
     id="namedview1"
     pagecolor="#ffffff"
     bordercolor="#cccccc"
     borderopacity="1"
     inkscape:showpageshadow="0"
     inkscape:pageopacity="1"
     inkscape:pagecheckerboard="0"
     inkscape:deskcolor="#d1d1d1"
     inkscape:zoom="0.78177527"
     inkscape:cx="214.89552"
     inkscape:cy="191.23143"
     inkscape:window-width="1728"
     inkscape:window-height="922"
     inkscape:window-x="0"
     inkscape:window-y="33"
     inkscape:window-maximized="0"
     inkscape:current-layer="layer3" />
  <g
     inkscape:groupmode="layer"
     id="layer3"
     inkscape:label="SVG 2"
     style="display:inline;opacity:1">
    <path
       id="path16275"
       style="display:inline;opacity:1;fill:url(#linearGradient16287);stroke:none;stroke-opacity:1"
       d="M 517.16211 309.50977 A 167.91943 206.81969 0 0 0 351.04883 514.27148 L 508.67578 514.27148 L 508.67578 514.19727 C 446.60158 505.64704 421.2355 450.14095 420.53125 414.52344 C 425.37394 344.61659 472.83838 316.43529 510.24219 310.79102 L 510.24609 310.77734 C 513.97176 310.12595 515.91885 309.76077 517.16211 309.50977 z M 534.00781 310.32812 L 534.00391 310.39453 C 534.21559 310.39661 534.42729 310.39797 534.63867 310.40039 A 167.91943 206.81969 0 0 0 534.00781 310.32812 z M 648.74414 385.08203 C 648.76954 385.28291 648.79396 385.48364 648.81836 385.68555 L 649.25781 385.85938 A 167.91943 206.81969 0 0 0 648.74414 385.08203 z M 524.42383 514.52148 C 591.92033 527.33823 611.20217 582.05504 611.17188 615.17578 C 612.49356 678.98828 559.16654 718.22314 523.86133 718.10547 L 509.27344 722.79297 A 167.91943 206.81969 0 0 0 518.96094 723.13672 A 167.91943 206.81969 0 0 0 686.87891 516.31641 A 167.91943 206.81969 0 0 0 686.87305 514.52148 L 524.42383 514.52148 z " />
  </g>
  <g
     inkscape:groupmode="layer"
     id="layer2"
     inkscape:label="SVG"
     style="display:inline;opacity:1">
    <path
       id="path16269"
       style="opacity:1;fill:url(#linearGradient16273);fill-opacity:1;stroke:none;stroke-opacity:1"
       d="M 516.88281,208.74219 A 284.36664,307.48016 0 0 0 232.52148,514.19336 l 119.89454,0.0898 a 166.25684,202.49231 0 0 1 -0.008,-2.01367 166.25684,202.49231 0 0 1 166.25586,-202.49219 166.25684,202.49231 0 0 1 128.83203,74.49805 L 725.91016,307.75 A 284.36664,307.48016 0 0 0 516.88281,208.74219 Z M 684.91211,514.5293 A 166.25684,202.49231 0 0 1 518.66406,714.76172 166.25684,202.49231 0 0 1 388.01758,637.50391 l -84.2832,82.2539 A 284.36664,307.48016 0 0 0 516.88281,823.70312 284.36664,307.48016 0 0 0 801.25,516.22266 a 284.36664,307.48016 0 0 0 -0.004,-1.60547 z" />
    <path
       style="opacity:0.586907;fill:#e7c06b;fill-opacity:1;stroke:none;stroke-width:0.990958;stroke-opacity:1"
       d="M 306.39845,714.4227 744.75694,291.01407"
       id="path16273" />
    <path
       style="opacity:0.586907;fill:#e7c06b;fill-opacity:1;stroke:none;stroke-opacity:1"
       d="M 303.09271,718.73604 729.47738,305.8948 v 0"
       id="path16274" />
  </g>
</svg>
